<svg width="80" height="80" viewBox="0 0 80 80" fill="none" xmlns="http://www.w3.org/2000/svg">
<path d="M55.69 2C50.04 2 44.44 3.98 39.96 7.44C35.48 3.98 29.88 2 24.23 2C10.65 2 0 12.64 0 26.23C0 41.65 12.53 53.01 31.49 70.2L31.53 70.24L39.94 77.9L48.37 70.28L48.52 70.14C67.42 52.96 79.91 41.62 79.91 26.22C79.91 12.64 69.27 2 55.69 2Z" fill="white"/>
<path d="M39.96 14.31C43.77 9.83 49.61 7 55.69 7C66.45 7 74.91 15.46 74.9 26.22C74.9 34.52 70.21 41.86 62.26 50.22L50.08 38.04C50.57 36.8 50.85 35.45 50.85 34.04C50.85 28.02 45.97 23.14 39.95 23.14C33.93 23.14 29.05 28.02 29.05 34.04C29.05 35.45 29.33 36.8 29.82 38.04L17.64 50.22C9.69001 41.87 5 34.53 5 26.23C5 15.46 13.46 7 24.23 7C30.31 7 36.15 9.84 39.96 14.31Z" fill="url(#paint0_linear_456_372)"/>
<path d="M39.95 31.23C39.95 31.23 46.83 42.48 47.03 42.31L58.63 53.91C54.7082 57.7627 50.1911 61.8691 45.2041 66.4027L45.02 66.57L39.95 71.15L34.88 66.54C29.81 61.95 25.24 57.8 21.27 53.91L32.87 42.31C33.07 42.48 39.95 31.23 39.95 31.23Z" fill="url(#paint1_linear_456_372)"/>
<defs>
<linearGradient id="paint0_linear_456_372" x1="39.9497" y1="7.00478" x2="39.9497" y2="71.1509" gradientUnits="userSpaceOnUse">
<stop stop-color="#8FCE3C"/>
<stop offset="1" stop-color="#64A322"/>
</linearGradient>
<linearGradient id="paint1_linear_456_372" x1="39.9497" y1="7.00478" x2="39.9497" y2="71.1509" gradientUnits="userSpaceOnUse">
<stop stop-color="#8FCE3C"/>
<stop offset="1" stop-color="#64A322"/>
</linearGradient>
</defs>
</svg>
